<?xml version="1.0" encoding="utf-8"?>
<!-- Generator: Adobe Illustrator 23.0.3, SVG Export Plug-In . SVG Version: 6.00 Build 0)  -->
<svg version="1.1" id="Layer_1" xmlns="http://www.w3.org/2000/svg" xmlns:xlink="http://www.w3.org/1999/xlink" x="0px" y="0px"
	 viewBox="0 0 1200 1200" enable-background="new 0 0 1200 1200" xml:space="preserve">
<g>
	<path fill="#0B0A0C" d="M130.152,628.387c-16.583,18.749-31.958,36.661-47.007,54.837c-3.349,4.044-6.365,8.395-10.966,11.219
		c-7.071,4.34-14.893,1.789-17.862-6.286c-1.99-5.412-2.96-11.101-3.412-16.947c-2.242-29.028-0.149-57.794,4.406-86.471
		c12.28-77.315,41.073-148.51,79.105-216.47c22.147-39.575,46.591-77.467,75.335-112.592c19.03-23.254,39.064-45.752,61.204-65.854
		c36.843-33.45,77.675-61.083,126.551-74.654c19.861-5.515,39.886-8.691,60.629-8.771c33.95-0.131,67.054,4.831,99.699,13.636
		c16.552,4.464,32.867,11.819,57.299,25.575c3.435-0.552,5.246-3.365,7.444-5.534c7.145-7.05,14.836-13.471,23.319-18.771
		c36.084-22.546,74.316-39.871,117.45-42.185c46.71-2.506,92.376,3.643,136.042,21.369c27.347,11.102,53.374,24.724,78.05,40.973
		c41.975,27.641,74.914,64.198,103.807,104.752c5.792,8.13,10.776,16.831,16.434,25.062c21.414,31.149,34.283,66.134,45.626,101.762
		c2.699,8.479,4.245,17.362,5.822,26.149c1.21,6.743,1.419,13.625-1.033,20.257c-2.813,7.608-9.64,10.365-16.39,5.952
		c-7.03-4.595-13.406-10.181-20.345-14.928c-4.009-2.742-6.794-8.289-13.094-6.54c-1.581,4.804,0.761,9.264,1.479,13.79
		c6.963,43.84,8.656,87.909,5.695,132.136c-1.975,29.5-7.723,58.325-17.669,86.244c-1.404,3.941-2.638,7.943-3.855,11.63
		c2.139,3.852,5.844,4.929,8.942,6.816c11.926,7.263,18.964,18.192,22.162,31.39c3.62,14.94,4.647,30.028,0.819,45.299
		c-3.333,13.299-7.406,26.206-13.372,38.611c-12.234,25.434-31.937,42.66-57.452,53.738c-8.743,3.796-17.904,6.257-27.475,6.414
		c-4.983,0.082-7.664,2.239-9.181,6.816c-2.974,8.976-6.072,17.916-9.35,26.786c-10.588,28.651-23.21,56.344-39.27,82.39
		c-11.392,18.477-24.853,35.223-41.316,49.474c-5.171,4.476-10.333,8.978-15.276,13.701c-35.985,34.378-78.68,57.605-124.801,75.095
		c-54.977,20.848-112.111,31.767-170.536,36.531c-32.116,2.619-62.564-2.971-91.921-16.826
		c-60.546-28.575-118.491-61.506-172.86-100.58c-34.303-24.653-64.883-53.596-93.8-84.266
		c-22.379-23.735-44.116-48.074-64.818-73.302c-4.112-5.011-8.666-8.398-15.06-10.575c-14.001-4.767-26.757-12.368-38.272-21.643
		c-22.847-18.404-35.083-42.882-38.842-71.625c-1.785-13.645-1.06-27.403,2.942-40.671c5.347-17.729,14.368-32.801,32.528-40.183
		c3.965-1.611,5.907-3.565,5.268-8.088C131.817,644.845,131.07,636.604,130.152,628.387z M628.65,170.304l0.344-0.363
		c-2.345,0.909-5.527,0.19-6.676,3.428l0.393-0.249c-3.662-1.97-8.099-2.353-11.105-5.69c-7.263-8.06-17.009-12.167-26.637-16.382
		c-37.137-16.258-76.327-22.768-116.537-24.114c-9.438-0.316-18.999-0.53-28.343,0.571c-40.484,4.768-76.766,20.232-110.427,43.055
		c-37.441,25.386-67.905,57.962-97.054,91.889c-37.879,44.087-68.015,93.395-94.668,144.857
		c-7.956,15.362-14.586,31.41-21.823,47.144c-3.19,2.377-3.746,6.251-5.119,9.551c-8.691,20.89-15.488,42.41-21.257,64.288
		c-9.278,35.186-15.976,70.785-17.766,107.19c-0.334,6.794,0.002,13.629,0.238,20.438c0.077,2.212,2.237,2.243,3.436,1.491
		c1.727-1.084,3.094-2.791,4.496-4.338c19.143-21.124,35.404-44.402,50.938-68.224c2.295-3.519,4.106-7.797,7.292-10.192
		c5.452-4.098,7.7-9.82,10.404-15.479c9.168-19.189,22.504-35.483,35.972-51.679c2.034-2.445,4.346-4.502,7.558-5.422
		c3.548-1.017,8.092,2.475,7.169,5.971c-0.787,2.982-1.989,5.982-3.623,8.588c-5.032,8.021-10.163,15.994-15.615,23.732
		c-9.156,12.997-16.244,27.03-21.934,41.823c-1.51,3.927-2.912,7.805-3.336,12.099c-6.885,69.701,13.144,130.963,57.789,184.478
		c10.213,12.242,23.038,21.514,36.205,30.285c4.178,2.783,6.38,1.472,6.99-3.84c0.06-0.523,0.076-1.05,0.132-1.573
		c5.341-50.331,14.289-99.94,30.271-148.077c5.299-15.96,10.015-32.34,17.519-47.26c4.972-9.886,8.053-18.934,6.176-29.694
		c-0.267-1.533-0.028-3.152-0.048-4.73c-0.359-28.141,5.346-55.409,12.151-82.478c2.175-8.652,5.108-17.132,8.052-25.565
		c1.548-4.435,3.446-8.867,7.501-11.822c2.234-1.627,4.665-2.558,7.348-1.462c3.202,1.309,5.091,3.874,4.98,7.313
		c-0.083,2.583-0.906,5.146-1.439,7.71c-2.891,13.896-5.835,27.782-8.683,41.687c-4.449,21.72-6.597,43.664-6.299,65.845
		c0.078,5.819,0.404,11.599,2.332,17.129c2.318,6.646,6.363,8.926,13.52,7.466c3.061-0.624,6.062-1.732,8.959-2.937
		c9.275-3.859,17.913-8.818,25.763-15.146c19.266-15.531,38.197-31.465,55.488-49.187c28.677-29.392,56.201-59.815,80.929-92.674
		c2.191-2.912,4.665-5.719,7.446-8.052c3.46-2.903,8.03-2.817,11.757-0.377c3.786,2.479,6.206,5.954,5.544,10.548
		c-0.519,3.602-1.795,7.129-3.017,10.59c-5.252,14.878-10.641,29.707-15.891,44.585c-0.862,2.443-1.548,5.019-1.788,7.582
		c-0.14,1.5,1.015,3.273,2.909,2.668c3.97-1.268,7.977-2.605,11.685-4.475c20.245-10.215,39.627-21.812,57.16-36.318
		c7.297-6.037,14.581-12.1,22.085-17.874c19.293-14.845,36.39-31.847,51.468-50.962c4.217-5.346,8.877-10.497,14.047-14.899
		c8.228-7.006,15.929-6.053,23.122,2.13c14.936,16.992,29.922,33.941,44.653,51.109c10.698,12.467,23.295,22.794,36.019,32.995
		c2.303,1.846,4.742,4.349,8.585,2.856c1.782-5.213-0.347-10.201-1.41-15.254c-1.948-9.259-3.972-18.501-5.946-27.755
		c-0.438-2.054-1.046-4.113-1.146-6.19c-0.228-4.749,2.865-9.267,7.404-11.083c4.428-1.772,8.394-0.596,11.538,2.659
		c2.162,2.238,3.917,4.931,5.553,7.605c4.12,6.729,8.121,13.533,12.078,20.359c15.648,26.998,34.463,51.592,56.072,74.078
		c10.251,10.667,21.419,20.192,33.919,28.176c5.307,3.39,10.349,7.218,15.341,11.069c4.669,3.603,8.547,7.73,8.586,14.305
		c0.026,4.384,3.001,7.764,4.81,11.532c7.509,15.645,15.997,30.911,22.268,47.039c12.006,30.875,22.745,62.242,32.454,93.938
		c0.766,2.501,1.514,5.018,2.479,7.444c1.051,2.643,4.206,3.09,6.317,0.892c1.818-1.893,3.469-3.949,5.162-5.96
		c16.703-19.827,30.231-41.796,42.181-64.658c14.242-27.249,23.05-56.412,27.239-86.878c3.876-28.193,5.5-56.504,3.325-84.954
		c-0.401-5.245-0.619-10.508-0.753-15.767c-0.717-28.029-5.02-55.469-13.29-82.279c-1.08-3.501-2.257-7.052-2.665-10.662
		c-0.726-6.421,4.241-10.904,10.797-10.385c3.82,0.303,7.06,1.987,10.205,3.925c6.27,3.864,12.47,7.842,18.761,11.673
		c2.62,1.596,4.939,4.094,8.498,3.393c2.996,4.035,4.954,9.366,11.294,9.555c1.101-4.187-0.041-7.703-1.123-11.198
		c-10.123-32.693-21.671-64.798-40.119-93.914c-8.158-12.877-16.168-25.908-25.233-38.138
		c-27.41-36.977-58.312-70.516-97.587-95.416c-51.003-32.336-105.492-54.233-166.797-55.854
		c-30.238-0.799-59.909,2.206-88.176,13.657c-11.672,4.728-23.158,10.042-34.32,15.871c-13.493,7.047-26.517,14.97-36.305,27.096
		c-2.818,1.623-4.761,3.612-2.99,7.153l0.483-0.235C631.694,165.334,630.731,168.85,628.65,170.304z M1076.208,669.164
		c-2.899,1.106-3.994,3.494-5.309,5.759c-5.278,9.094-10.501,18.223-15.983,27.193c-8.796,14.391-18.799,27.923-29.876,40.642
		c-3.799,4.362-7.743,8.633-12.868,11.528c-11.402,6.438-23.477,2.701-28.956-9.182c-1.75-3.795-2.747-7.938-4.074-11.926
		c-17.251-51.861-34.212-103.821-59.655-152.5c-2.589-4.952-5.602-8.326-10.419-11.059c-19.828-11.251-37.371-25.452-52.358-42.669
		c-8.284-9.517-16.241-19.319-24.359-28.982c-1.951-2.323-3.049-5.709-6.934-5.678c-4.357,17.237-10.254,20.16-25.468,12.581
		c-2.352-1.172-4.663-2.436-6.935-3.756c-22.928-13.323-43.427-29.689-60.822-49.716c-11.033-12.703-21.441-25.946-32.217-38.874
		c-1.864-2.236-2.932-5.696-7.398-5.388c-2.312,3.106-4.774,6.5-7.326,9.826c-10.595,13.812-22.042,26.867-35.433,38.043
		c-14.539,12.134-29.124,24.231-44.052,35.879c-17.473,13.634-36.645,24.626-56.54,34.318c-11.955,5.824-24.579,9.387-37.997,9.093
		c-11.743-0.258-16.092-5.102-15.706-16.715c0.097-2.908,2.318-5.978-0.97-9.133c-7.811,8.539-15.601,17.054-23.389,25.57
		c-22.087,24.151-46.82,45.413-72.399,65.691c-13.692,10.855-28.714,19.32-46.166,22.997c-7.041,1.483-13.568,0.727-20.091-1.639
		c-3.145-1.141-5.686-3.952-9.134-4.214c-1.094,2.194-1.954,3.543-2.473,5.012c-18.777,53.196-32.686,107.573-39.624,163.638
		c-1.743,14.087-3.338,28.198-5.412,42.238c-2.268,15.354-9.354,18.328-22.803,9.872c-5.786-3.638-11.355-7.622-17.143-11.256
		c-29.2-18.332-50.956-43.57-68.426-72.944c-12.456-20.943-21.047-43.453-28.215-66.602c-1.998-6.451-4.84-7.152-9.782-2.429
		c-7.85,7.502-13.017,16.602-14.708,27.292c-2.501,15.807-1.455,31.341,3.957,46.636c10.124,28.614,31.539,45.542,58.704,55.454
		c10.947,3.995,19.292,9.827,26.773,18.285c21.262,24.039,42.379,48.237,64.463,71.51c31.167,32.845,63.952,63.944,101.087,90.247
		c39.153,27.734,80.842,51.145,122.977,73.831c12.94,6.967,26.331,13.147,39.762,19.135c21.461,9.569,43.854,13.861,67.545,12.274
		c16.355-1.095,32.288-4.299,48.328-7.068c42.508-7.34,84.703-16.128,125.039-31.838c40.948-15.948,79.224-36.539,111.343-67.243
		c5.321-5.087,10.864-9.956,16.487-14.71c16.246-13.734,29.4-30.01,40.279-48.222c14.607-24.453,26.029-50.389,36.004-77.001
		c3.872-10.331,7.6-20.716,11.455-31.054c3.526-9.456,9.983-14.333,20.483-13.687c9.041,0.556,17.808-1.317,26.183-4.753
		c21.769-8.931,38.619-23.117,48.357-45.047c8.426-18.974,14.472-38.366,11.882-59.511
		C1094.271,685.654,1089.344,674.61,1076.208,669.164z"/>
	<path fill="#6A59B5" d="M1116.174,388.119c-3.559,0.701-5.878-1.797-8.498-3.393c-6.29-3.83-12.49-7.809-18.761-11.673
		c-3.145-1.938-6.384-3.622-10.205-3.925c-6.556-0.52-11.523,3.964-10.797,10.385c0.408,3.61,1.585,7.161,2.665,10.662
		c8.27,26.81,12.573,54.25,13.29,82.279c0.135,5.259,0.352,10.523,0.753,15.767c2.175,28.45,0.551,56.761-3.325,84.954
		c-4.189,30.466-12.997,59.629-27.239,86.878c-11.949,22.862-25.478,44.831-42.181,64.658c-1.693,2.01-3.344,4.067-5.162,5.96
		c-2.111,2.197-5.266,1.75-6.317-0.892c-0.965-2.426-1.713-4.943-2.479-7.444c-9.709-31.696-20.449-63.063-32.454-93.938
		c-6.271-16.128-14.76-31.394-22.268-47.039c-1.808-3.768-4.784-7.148-4.81-11.532c-0.039-6.575-3.917-10.703-8.586-14.305
		c-4.991-3.851-10.034-7.68-15.341-11.069c-12.5-7.984-23.668-17.509-33.919-28.176c-21.609-22.486-40.424-47.079-56.072-74.078
		c-3.957-6.827-7.959-13.63-12.078-20.359c-1.637-2.674-3.391-5.367-5.553-7.605c-3.144-3.255-7.11-4.43-11.538-2.659
		c-4.539,1.816-7.632,6.335-7.404,11.083c0.1,2.077,0.708,4.136,1.146,6.19c1.974,9.253,3.997,18.496,5.946,27.755
		c1.063,5.053,3.192,10.041,1.41,15.254c-3.843,1.493-6.282-1.01-8.585-2.856c-12.725-10.202-25.322-20.529-36.019-32.995
		c-14.731-17.168-29.718-34.117-44.653-51.109c-7.193-8.183-14.894-9.135-23.122-2.13c-5.17,4.402-9.831,9.554-14.047,14.899
		c-15.078,19.115-32.175,36.116-51.468,50.962c-7.504,5.774-14.788,11.837-22.085,17.874c-17.533,14.506-36.916,26.104-57.16,36.318
		c-3.708,1.871-7.716,3.207-11.685,4.475c-1.894,0.605-3.049-1.169-2.909-2.668c0.24-2.564,0.926-5.14,1.788-7.582
		c5.25-14.878,10.639-29.708,15.891-44.585c1.222-3.461,2.498-6.988,3.017-10.59c0.662-4.593-1.758-8.069-5.544-10.548
		c-3.727-2.44-8.297-2.526-11.757,0.377c-2.781,2.333-5.255,5.14-7.446,8.052c-24.728,32.858-52.252,63.282-80.929,92.674
		c-17.291,17.722-36.223,33.656-55.488,49.187c-7.85,6.329-16.488,11.287-25.763,15.146c-2.896,1.205-5.898,2.313-8.959,2.937
		c-7.157,1.459-11.202-0.821-13.52-7.466c-1.929-5.529-2.254-11.31-2.332-17.129c-0.298-22.181,1.85-44.125,6.299-65.845
		c2.848-13.905,5.792-27.791,8.683-41.687c0.533-2.564,1.356-5.127,1.439-7.71c0.11-3.438-1.778-6.004-4.98-7.313
		c-2.683-1.096-5.114-0.166-7.348,1.462c-4.056,2.954-5.953,7.387-7.501,11.822c-2.944,8.434-5.877,16.913-8.052,25.565
		c-6.805,27.07-12.51,54.337-12.151,82.478c0.02,1.579-0.219,3.198,0.048,4.73c1.877,10.76-1.203,19.808-6.176,29.694
		c-7.504,14.92-12.22,31.3-17.519,47.26c-15.982,48.138-24.931,97.747-30.271,148.077c-0.056,0.523-0.072,1.051-0.132,1.573
		c-0.61,5.312-2.813,6.623-6.99,3.84c-13.167-8.771-25.991-18.043-36.205-30.285c-44.645-53.514-64.674-114.776-57.789-184.478
		c0.424-4.294,1.826-8.172,3.336-12.099c5.69-14.793,12.777-28.826,21.934-41.823c5.452-7.739,10.584-15.712,15.615-23.732
		c1.635-2.606,2.836-5.606,3.623-8.588c0.923-3.496-3.622-6.988-7.169-5.971c-3.211,0.92-5.524,2.977-7.558,5.422
		c-13.468,16.196-26.804,32.49-35.972,51.679c-2.704,5.66-4.952,11.382-10.404,15.479c-3.186,2.395-4.998,6.673-7.292,10.192
		c-15.534,23.822-31.795,47.1-50.938,68.224c-1.403,1.548-2.769,3.254-4.496,4.338c-1.199,0.753-3.359,0.722-3.436-1.491
		c-0.236-6.809-0.572-13.644-0.238-20.438c1.79-36.405,8.488-72.004,17.766-107.19c5.769-21.878,12.566-43.397,21.257-64.288
		c1.373-3.301,1.929-7.174,5.123-9.557c0.947,0.386,2.589,1.281,2.726,1.091c1.776-2.464,3.618-4.948,4.911-7.68
		c19.637-41.511,43.937-80.27,69.566-118.253c31.11-46.105,67.819-87.015,111.072-122.178
		c46.533-37.83,100.221-57.028,159.19-62.214c38.828-3.415,76.509,3.724,113.155,16.529c10.921,3.816,21.733,7.942,32.616,11.868
		c4.487,1.618,9.037,3.309,13.355-0.485c0,0-0.393,0.249-0.393,0.248c2.181-1.23,5.194-0.837,6.676-3.427
		c0,0-0.344,0.363-0.346,0.361c2.217-1.202,4.435-2.402,6.653-3.603c0,0-0.483,0.235-0.483,0.234c1.63-0.07,3.084-0.428,3.648-2.237
		c6.192-2.841,12.362-5.73,18.579-8.514c28.51-12.769,58.755-19.361,89.255-25.063c19.736-3.69,39.581-4.784,59.593-3.055
		c43.578,3.764,84.253,17.313,122.704,37.516c37.968,19.949,71.041,46.69,101.518,76.662c10.854,10.674,21.158,21.878,30.467,34.017
		c22.927,29.897,39.333,63.229,52.672,98.228C1114.918,378.852,1117.117,383.167,1116.174,388.119z"/>
	<path fill="#FFC9B8" d="M1076.208,669.164c13.136,5.446,18.063,16.49,19.687,29.746c2.59,21.145-3.456,40.537-11.882,59.511
		c-9.739,21.93-26.588,36.116-48.357,45.047c-8.374,3.436-17.141,5.309-26.183,4.753c-10.501-0.646-16.957,4.231-20.483,13.687
		c-3.855,10.338-7.583,20.723-11.455,31.054c-9.975,26.613-21.397,52.549-36.004,77.001c-10.879,18.212-24.034,34.488-40.279,48.222
		c-5.623,4.754-11.166,9.623-16.487,14.71c-32.118,30.704-70.395,51.295-111.343,67.243c-40.336,15.71-82.531,24.499-125.039,31.838
		c-16.039,2.77-31.973,5.973-48.328,7.068c-23.692,1.587-46.085-2.706-67.545-12.274c-13.431-5.988-26.823-12.168-39.762-19.135
		c-42.134-22.686-83.823-46.097-122.977-73.831c-37.135-26.304-69.921-57.402-101.087-90.247
		c-22.083-23.273-43.201-47.471-64.463-71.51c-7.481-8.458-15.826-14.291-26.773-18.285c-27.165-9.912-48.58-26.84-58.704-55.454
		c-5.412-15.295-6.458-30.829-3.957-46.636c1.692-10.69,6.858-19.79,14.708-27.292c4.943-4.724,7.785-4.023,9.782,2.429
		c7.168,23.149,15.759,45.658,28.215,66.602c17.47,29.375,39.227,54.612,68.426,72.944c5.789,3.634,11.357,7.618,17.143,11.256
		c13.449,8.456,20.535,5.482,22.803-9.872c2.074-14.039,3.669-28.151,5.412-42.238c6.937-56.066,20.847-110.442,39.624-163.638
		c0.519-1.469,1.378-2.818,2.473-5.012c3.449,0.262,5.989,3.073,9.134,4.214c6.524,2.366,13.05,3.122,20.091,1.639
		c17.452-3.677,32.473-12.142,46.166-22.997c25.579-20.278,50.313-41.54,72.399-65.691c7.789-8.516,15.579-17.031,23.389-25.57
		c3.289,3.155,1.067,6.225,0.97,9.133c-0.386,11.613,3.963,16.457,15.706,16.715c13.418,0.295,26.042-3.269,37.997-9.093
		c19.895-9.692,39.068-20.685,56.54-34.318c14.928-11.648,29.512-23.745,44.052-35.879c13.391-11.176,24.838-24.23,35.433-38.043
		c2.551-3.326,5.013-6.72,7.326-9.826c4.466-0.308,5.534,3.151,7.398,5.388c10.776,12.928,21.184,26.171,32.217,38.874
		c17.395,20.027,37.894,36.393,60.822,49.716c2.272,1.32,4.583,2.584,6.935,3.756c15.213,7.58,21.111,4.656,25.466-12.579
		c3.886-0.032,4.984,3.354,6.935,5.677c8.118,9.663,16.075,19.465,24.359,28.982c14.986,17.217,32.53,31.418,52.358,42.669
		c4.817,2.734,7.831,6.107,10.419,11.059c25.443,48.679,42.405,100.639,59.655,152.5c1.327,3.988,2.325,8.131,4.074,11.926
		c5.479,11.883,17.553,15.62,28.956,9.182c5.125-2.894,9.069-7.165,12.868-11.528c11.077-12.719,21.081-26.251,29.876-40.642
		c5.482-8.97,10.706-18.099,15.983-27.193C1072.214,672.657,1073.308,670.27,1076.208,669.164z M540.561,937.226
		c-0.487,16.637,2.495,32.715,4.974,48.81c2.081,13.512,5.255,26.812,9.919,39.725c3.699,10.24,9.587,18.715,19.067,24.325
		c9.591,5.677,17.681,4.8,25.942-2.709c5.124-4.658,8.787-10.459,12.163-16.425c6.771-11.967,11.489-24.83,15.522-37.883
		c8.697-28.145,16.243-56.602,20.769-85.764c1.079-6.954,3.109-11.466,10.858-14.904c29.512-13.093,39.362-58.899,7.511-80.432
		c-2.572-1.738-5.33-3.435-8.252-4.35c-2.616-0.819-5.156,0.483-6.659,2.982c-1.208,2.009-0.93,4.243,0.436,5.898
		c3.008,3.643,6.452,6.924,9.478,10.553c10.741,12.883,9.997,30.612-1.689,42.942c-9.624,10.155-25.125,10.349-38.744,0.272
		c-3.365-2.49-6.342-5.519-9.408-8.396c-2.685-2.52-5.097-5.344-7.889-7.732c-5.253-4.492-8.845-4.549-14.006-0.446
		c-1.641,1.304-3.058,2.888-4.582,4.34c-8.429,8.026-19.059,11.162-30.11,12.433c-17.408,2.003-28.452-9.191-26.443-26.53
		c0.596-5.141,2.426-10.204,4.178-15.13c2.859-8.042,7.96-14.779,13.447-21.198c2.046-2.393,4.496-4.442,6.531-6.843
		c1.784-2.105,2.711-4.587,0.677-7.107c-1.762-2.183-4.153-3.196-6.943-2.733c-3.713,0.616-7.004,2.265-9.842,4.726
		c-13.539,11.738-23.008,25.982-25.933,43.901c-3.942,24.147,5.089,39.237,28.088,47.714c5.418,1.997,5.68,2.325,4.955,7.812
		C542.712,909.154,540.066,923.154,540.561,937.226z M778.569,652.286c-15.352,0.077-32.307,3.036-46.162,8.379
		c-9.838,3.795-19.039,8.76-26.793,16.064c-1.902,1.791-3.881,3.571-5.436,5.646c-3.325,4.437-3.443,10.899-0.558,14.699
		c2.846,3.749,9.275,5.168,14.349,2.654c3.258-1.613,6.084-4.076,9.201-6.002c32.164-19.877,65.406-23.726,100.117-6.826
		c7.089,3.451,13.777,7.471,20.346,11.818c6.292,4.163,12.027,3.514,15.455-0.918c3.514-4.543,3.041-10.003-1.786-15.668
		c-4.804-5.639-10.779-9.9-17.185-13.576C821.051,657.617,800.491,652.376,778.569,652.286z M422.816,630.767
		c-20.279-0.288-42.648,10.923-61.401,30.277c-2.547,2.629-4.913,5.502-6.952,8.538c-2.724,4.056-2.232,8.911,0.722,11.501
		c3.114,2.73,8.264,3.26,11.617,0.635c3.287-2.574,6.138-5.703,9.206-8.56c15.316-14.258,33.155-21.478,54.363-20.792
		c19.303,0.625,37.392,5.104,54.226,14.472c6.412,3.568,12.482,7.749,18.84,11.421c2.795,1.614,5.915,2.209,8.906,0.075
		c2.649-1.89,3.661-6.421,1.998-10.005c-0.878-1.892-1.942-3.765-3.253-5.379c-6.021-7.412-12.822-13.993-21.713-17.857
		C470.439,636.862,450.819,631.359,422.816,630.767z"/>
	<path fill="#FFFFFF" d="M1116.174,388.119c0.943-4.952-1.256-9.266-2.92-13.632c-13.339-34.999-29.745-68.331-52.672-98.228
		c-9.309-12.138-19.613-23.342-30.467-34.017c-30.477-29.972-63.55-56.713-101.518-76.662
		c-38.451-20.203-79.125-33.752-122.704-37.516c-20.012-1.729-39.857-0.635-59.593,3.055c-30.501,5.703-60.745,12.294-89.255,25.063
		c-6.217,2.785-12.387,5.673-18.578,8.512c-0.219-1.64-0.439-3.277-0.658-4.914c9.788-12.126,22.812-20.05,36.305-27.096
		c11.162-5.829,22.648-11.143,34.32-15.871c28.268-11.452,57.938-14.457,88.176-13.657c61.305,1.62,115.794,23.518,166.797,55.854
		c39.274,24.9,70.177,58.438,97.587,95.416c9.065,12.229,17.075,25.261,25.233,38.138c18.447,29.117,29.995,61.222,40.119,93.914
		c1.082,3.494,2.224,7.011,1.123,11.198C1121.129,397.485,1119.17,392.154,1116.174,388.119z"/>
	<path fill="#FFFFFF" d="M622.711,173.12c-4.318,3.793-8.869,2.103-13.355,0.485c-10.883-3.926-21.695-8.052-32.616-11.868
		c-36.646-12.805-74.327-19.943-113.155-16.529c-58.969,5.186-112.657,24.384-159.19,62.214
		c-43.253,35.164-79.962,76.073-111.072,122.178c-25.629,37.983-49.929,76.742-69.566,118.253c-1.292,2.732-3.135,5.217-4.911,7.68
		c-0.137,0.19-1.78-0.706-2.726-1.091c7.234-15.729,13.863-31.777,21.819-47.139c26.653-51.462,56.79-100.77,94.668-144.857
		c29.149-33.926,59.612-66.502,97.054-91.889c33.661-22.823,69.943-38.287,110.427-43.055c9.344-1.1,18.906-0.887,28.343-0.571
		c40.21,1.346,79.401,7.856,116.537,24.114c9.628,4.215,19.374,8.322,26.637,16.382C614.612,170.766,619.049,171.15,622.711,173.12z
		"/>
	<path fill="#FFFFFF" d="M637.809,159.78c0.22,1.637,0.439,3.274,0.658,4.914c-0.565,1.811-2.018,2.169-3.648,2.24
		C633.048,163.392,634.991,161.404,637.809,159.78z"/>
	<path fill="#FFFFFF" d="M628.994,169.941c-1.482,2.59-4.495,2.198-6.676,3.427C623.467,170.13,626.649,170.85,628.994,169.941z"/>
	<path fill="#FFFFFF" d="M635.302,166.699c-2.218,1.2-4.437,2.4-6.653,3.603C630.731,168.85,631.694,165.334,635.302,166.699z"/>
	<path fill="#0B0A0C" d="M540.561,937.226c-0.495-14.073,2.151-28.072,4.013-42.149c0.726-5.487,0.464-5.815-4.955-7.812
		c-22.998-8.477-32.03-23.568-28.088-47.714c2.925-17.919,12.394-32.164,25.933-43.901c2.838-2.46,6.129-4.11,9.842-4.726
		c2.79-0.463,5.181,0.55,6.943,2.733c2.034,2.52,1.107,5.003-0.677,7.107c-2.035,2.401-4.485,4.449-6.531,6.843
		c-5.487,6.419-10.588,13.156-13.447,21.198c-1.751,4.926-3.582,9.989-4.178,15.13c-2.009,17.339,9.035,28.532,26.443,26.53
		c11.05-1.271,21.68-4.407,30.11-12.433c1.524-1.451,2.942-3.036,4.582-4.34c5.161-4.103,8.754-4.046,14.006,0.446
		c2.792,2.388,5.204,5.212,7.889,7.732c3.066,2.877,6.042,5.906,9.408,8.396c13.618,10.077,29.12,9.883,38.744-0.272
		c11.686-12.33,12.43-30.06,1.689-42.942c-3.026-3.629-6.47-6.91-9.478-10.553c-1.367-1.655-1.645-3.889-0.436-5.898
		c1.503-2.499,4.044-3.801,6.659-2.982c2.922,0.915,5.681,2.612,8.252,4.35c31.852,21.533,22.001,67.339-7.511,80.432
		c-7.749,3.438-9.779,7.949-10.858,14.904c-4.526,29.162-12.072,57.62-20.769,85.764c-4.033,13.053-8.752,25.916-15.522,37.883
		c-3.376,5.966-7.039,11.767-12.163,16.425c-8.261,7.51-16.351,8.386-25.942,2.709c-9.48-5.611-15.368-14.085-19.067-24.325
		c-4.664-12.913-7.838-26.213-9.919-39.725C543.057,969.941,540.074,953.863,540.561,937.226z M629.719,901.527
		c-0.119-3.535-0.949-6.309-4.622-7.544c-9.741-3.274-17.441-9.495-24.299-16.917c-2.368-2.562-4.91-3.928-8.105-1.278
		c-6.631,5.499-14.542,8.399-22.672,10.559c-4.702,1.249-6.81,3.531-7.57,8.475c-4.516,29.395-3.661,58.651,1.91,87.769
		c2.067,10.807,4.983,21.456,7.647,32.143c1.279,5.132,3.437,9.886,6.877,14.017c4.112,4.939,7.705,5.009,11.311-0.059
		c5.217-7.332,8.916-15.466,11.976-23.868c8.269-22.705,15.356-45.773,20.549-69.388
		C625.198,924.166,627.395,912.832,629.719,901.527z"/>
	<path fill="#0B0A0C" d="M778.569,652.286c21.922,0.09,42.483,5.331,61.548,16.271c6.407,3.676,12.381,7.938,17.185,13.576
		c4.826,5.665,5.3,11.125,1.786,15.668c-3.428,4.432-9.164,5.081-15.455,0.918c-6.569-4.346-13.258-8.367-20.346-11.818
		c-34.711-16.9-67.953-13.051-100.117,6.826c-3.116,1.926-5.943,4.388-9.201,6.002c-5.074,2.513-11.503,1.095-14.349-2.654
		c-2.885-3.8-2.766-10.262,0.558-14.699c1.555-2.076,3.534-3.855,5.436-5.646c7.754-7.304,16.955-12.269,26.793-16.064
		C746.262,655.322,763.217,652.363,778.569,652.286z"/>
	<path fill="#0B0A0C" d="M422.816,630.767c28.003,0.592,47.622,6.095,66.559,14.325c8.891,3.864,15.692,10.445,21.713,17.857
		c1.311,1.613,2.375,3.486,3.253,5.379c1.663,3.583,0.651,8.114-1.998,10.005c-2.991,2.134-6.111,1.539-8.906-0.075
		c-6.358-3.672-12.428-7.852-18.84-11.421c-16.834-9.368-34.923-13.847-54.226-14.472c-21.208-0.686-39.047,6.534-54.363,20.792
		c-3.069,2.857-5.919,5.986-9.206,8.56c-3.352,2.625-8.502,2.095-11.617-0.635c-2.954-2.589-3.447-7.445-0.722-11.501
		c2.039-3.036,4.405-5.909,6.952-8.538C380.168,641.69,402.538,630.479,422.816,630.767z"/>
	<path fill="#DD554F" d="M621.314,941.276c0.456-1.95,0.975-3.882,1.406-5.84c2.478-11.271,4.675-22.604,7-33.909
		c-0.119-3.535-0.949-6.309-4.622-7.544c-9.741-3.274-17.441-9.495-24.299-16.917c-2.368-2.562-4.91-3.928-8.105-1.278
		c-6.631,5.499-14.542,8.399-22.672,10.559c-4.702,1.249-6.81,3.531-7.569,8.475c-2.232,14.527-3.141,29.021-2.829,43.48
		C578.115,930.927,601.255,932.653,621.314,941.276z"/>
	<path fill="#FC7E79" d="M559.622,938.302c0.32,14.798,1.921,29.561,4.738,44.289c2.067,10.807,4.983,21.456,7.647,32.143
		c1.279,5.132,3.437,9.886,6.877,14.017c4.112,4.939,7.705,5.009,11.311-0.059c5.216-7.332,8.916-15.466,11.976-23.868
		c7.583-20.823,14.097-41.973,19.143-63.548C601.255,932.653,578.115,930.927,559.622,938.302z"/>
	
		<ellipse transform="matrix(0.4529 -0.8916 0.8916 0.4529 -479.7625 736.4293)" fill="#FC7E79" cx="360.133" cy="759.107" rx="35.836" ry="59.51"/>
	
		<ellipse transform="matrix(0.919 -0.3943 0.3943 0.919 -235.888 402.4489)" fill="#FC7E79" cx="861.38" cy="775.237" rx="59.51" ry="35.836"/>
</g>
</svg>
